<?xml version="1.0" encoding="UTF-8" standalone="no"?>
<!DOCTYPE svg PUBLIC "-//W3C//DTD SVG 1.1//EN" "http://www.w3.org/Graphics/SVG/1.1/DTD/svg11.dtd">
<svg width="100%" height="100%" viewBox="0 0 484 483" version="1.1" xmlns="http://www.w3.org/2000/svg" xmlns:xlink="http://www.w3.org/1999/xlink" xml:space="preserve" xmlns:serif="http://www.serif.com/" style="fill-rule:evenodd;clip-rule:evenodd;stroke-linejoin:round;stroke-miterlimit:2;">
    <g transform="matrix(1,0,0,1,-5,0)">
        <g id="logo-icon" transform="matrix(1,0,0,1,-616.543,-15.5001)">
            <rect x="622.005" y="15.5" width="482.855" height="482.855" style="fill:none;"/>
            <g transform="matrix(1.03267,0,0,1.03267,617.577,-571.149)">
                <path d="M254.922,919.465L139.704,803.588C139.704,803.588 238.406,704.886 238.406,704.886C238.406,704.886 398.641,865.122 398.641,865.122C403.936,870.416 412.519,870.416 417.814,865.122L467.016,815.919C472.311,810.625 472.311,802.041 467.016,796.746L248.159,577.889C242.864,572.594 234.281,572.594 228.986,577.889L12.432,794.443C7.137,799.738 7.137,808.322 12.432,813.616L227.557,1028.74C232.852,1034.04 241.436,1034.04 246.73,1028.74L305.406,970.065L286.234,950.892L237.144,999.983C237.144,999.983 41.191,804.03 41.191,804.03C41.191,804.03 238.573,606.648 238.573,606.648C238.573,606.648 438.258,806.333 438.258,806.333C438.258,806.333 408.227,836.363 408.227,836.363C372.343,800.478 247.992,676.127 247.992,676.127C242.698,670.833 234.114,670.833 228.819,676.127L110.972,793.975C105.689,799.258 105.676,807.821 110.945,813.12L235.695,938.583L254.922,919.465Z" style="fill:rgb(59,130,246);"/>
            </g>
        </g>
    </g>
</svg>
